<svg xmlns="http://www.w3.org/2000/svg" version="1.1" width="110px" height="727px" style="shape-rendering:geometricPrecision; text-rendering:geometricPrecision; image-rendering:optimizeQuality; fill-rule:evenodd; clip-rule:evenodd" xmlns:xlink="http://www.w3.org/1999/xlink" transform="rotate(180)">
<g><path style="opacity:1" fill="#fdfefd" d="M -0.5,-0.5 C 36.1667,-0.5 72.8333,-0.5 109.5,-0.5C 109.5,241.833 109.5,484.167 109.5,726.5C 72.8333,726.5 36.1667,726.5 -0.5,726.5C -0.5,484.167 -0.5,241.833 -0.5,-0.5 Z"></path></g>
<g><path style="opacity:1" fill="#a6d4f1" d="M 100.5,543.5 C 99.6757,551.404 98.5091,559.404 97,567.5C 96.6532,537.147 97.1532,506.814 98.5,476.5C 97.6264,470.871 96.6264,470.538 95.5,475.5C 96.0829,482.151 96.4162,488.817 96.5,495.5C 95.7662,523.509 94.7662,551.509 93.5,579.5C 93.9292,594.853 94.5959,610.186 95.5,625.5C 94.5,625.5 93.5,625.5 92.5,625.5C 92.3187,622.603 92.6521,619.77 93.5,617C 92.3301,615.413 91.3301,613.747 90.5,612C 89.552,611.517 88.552,611.351 87.5,611.5C 87.6655,607.486 87.4988,603.486 87,599.5C 87.0131,605.055 86.0131,610.388 84,615.5C 83.5006,620.823 83.334,626.156 83.5,631.5C 84.8333,631.5 86.1667,631.5 87.5,631.5C 87.5,634.167 87.5,636.833 87.5,639.5C 86.1667,639.5 84.8333,639.5 83.5,639.5C 83.5,647.5 83.5,655.5 83.5,663.5C 86.6268,663.514 89.2935,662.514 91.5,660.5C 95.1041,661.397 95.4375,663.063 92.5,665.5C 93.5854,667.727 93.0854,669.727 91,671.5C 90.6667,670.167 90.3333,668.833 90,667.5C 88.8684,669.339 88.0351,671.339 87.5,673.5C 87.8076,674.308 88.3076,674.975 89,675.5C 91.558,673.325 94.3913,671.658 97.5,670.5C 88.7493,707.397 67.0826,719.063 32.5,705.5C 24.2222,699.562 18.2222,691.896 14.5,682.5C 15.7121,675.888 15.7121,669.555 14.5,663.5C 14.0019,615.681 13.5019,567.681 13,519.5C 12.8324,551.669 12.3324,583.669 11.5,615.5C 11.8332,575.494 11.4999,535.494 10.5,495.5C 9.83329,503.657 9.16662,511.657 8.5,519.5C 8.5,492.833 8.5,466.167 8.5,439.5C 10.4649,445.958 10.7983,452.625 9.5,459.5C 10.2216,468.818 10.7216,478.152 11,487.5C 11.8016,370.161 11.6349,252.827 10.5,135.5C 10.9761,108.796 15.3094,82.796 23.5,57.5C 28.5323,44.431 35.3656,32.431 44,21.5C 47.5809,17.485 51.7476,14.6517 56.5,13C 61.3247,17.1239 65.8247,21.6239 70,26.5C 81.4971,45.793 89.6637,66.4596 94.5,88.5C 97.3875,104.041 99.2208,119.708 100,135.5C 100.5,271.5 100.667,407.5 100.5,543.5 Z"></path></g>
<g><path style="opacity:1" fill="#a6d4ed" d="M 10.5,135.5 C 11.6349,252.827 11.8016,370.161 11,487.5C 10.7216,478.152 10.2216,468.818 9.5,459.5C 10.7983,452.625 10.4649,445.958 8.5,439.5C 8.33334,343.499 8.5,247.499 9,151.5C 9.17331,145.984 9.67331,140.651 10.5,135.5 Z"></path></g>
<g><path style="opacity:1" fill="#a7d5f3" d="M 100.5,543.5 C 100.99,585.889 99.9902,628.223 97.5,670.5C 94.3913,671.658 91.558,673.325 89,675.5C 88.3076,674.975 87.8076,674.308 87.5,673.5C 88.0351,671.339 88.8684,669.339 90,667.5C 90.3333,668.833 90.6667,670.167 91,671.5C 93.0854,669.727 93.5854,667.727 92.5,665.5C 95.4375,663.063 95.1041,661.397 91.5,660.5C 89.2935,662.514 86.6268,663.514 83.5,663.5C 83.5,655.5 83.5,647.5 83.5,639.5C 84.8333,639.5 86.1667,639.5 87.5,639.5C 87.5,636.833 87.5,634.167 87.5,631.5C 86.1667,631.5 84.8333,631.5 83.5,631.5C 83.334,626.156 83.5006,620.823 84,615.5C 86.0131,610.388 87.0131,605.055 87,599.5C 87.4988,603.486 87.6655,607.486 87.5,611.5C 88.552,611.351 89.552,611.517 90.5,612C 91.3301,613.747 92.3301,615.413 93.5,617C 92.6521,619.77 92.3187,622.603 92.5,625.5C 93.5,625.5 94.5,625.5 95.5,625.5C 94.5959,610.186 93.9292,594.853 93.5,579.5C 94.7662,551.509 95.7662,523.509 96.5,495.5C 96.4162,488.817 96.0829,482.151 95.5,475.5C 96.6264,470.538 97.6264,470.871 98.5,476.5C 97.1532,506.814 96.6532,537.147 97,567.5C 98.5091,559.404 99.6757,551.404 100.5,543.5 Z"></path></g>
<g><path style="opacity:1" fill="#a7d4f4" d="M 14.5,663.5 C 13.1995,664.882 12.3661,666.548 12,668.5C 11.6391,650.909 11.4724,633.243 11.5,615.5C 12.3324,583.669 12.8324,551.669 13,519.5C 13.5019,567.681 14.0019,615.681 14.5,663.5 Z"></path></g>
<g><path style="opacity:1" fill="#a5d4ed" d="M 11.5,615.5 C 11.4724,633.243 11.6391,650.909 12,668.5C 12.3661,666.548 13.1995,664.882 14.5,663.5C 15.7121,669.555 15.7121,675.888 14.5,682.5C 13.1396,676.741 11.3062,671.074 9,665.5C 8.50001,616.834 8.33334,568.168 8.5,519.5C 9.16662,511.657 9.83329,503.657 10.5,495.5C 11.4999,535.494 11.8332,575.494 11.5,615.5 Z"></path></g>
</svg>